# xmcd
#
# Track frame offsets: 
#        150
#        12625
#        23887
#        40050
#        57550
#        76760
#        91200
#        102525
#        118675
#        126862
#        144275
#        160050
#        175562
#        193437
#        207825
#        226412
#        241425
#
# Disc length: 3411 seconds
#
# Revision: 1
# Processed by: cddbd v1.5.1PL0 Copyright (c) Steve Scherf et al.
# Submitted via: ExactAudioCopy v0.95b3
#
DISCID=e40d5111
DTITLE=Tom Waits - Franks Wild Years
DYEAR=1987
DGENRE=
TTITLE0=Hang on St. Christopher
TTITLE1=Straight to the top (rhumba)
TTITLE2=Blow wind Blow
TTITLE3=Temptation
TTITLE4=Innocent when you dream (barroom)
TTITLE5=I'll be gone
TTITLE6=Yestarday is here
TTITLE7=Please wake me up
TTITLE8=Frank's theme
TTITLE9=More than rain
TTITLE10=Way down in the hole
TTITLE11=Straight to the top (Vegas)
TTITLE12=I'll take New York
TTITLE13=Telephone call from Istanbul
TTITLE14=Cold call ground
TTITLE15=Train song
TTITLE16=Innocent when you dream (78)
EXTD=1987\n
EXTT0=
EXTT1=
EXTT2=
EXTT3=
EXTT4=
EXTT5=
EXTT6=
EXTT7=
EXTT8=
EXTT9=
EXTT10=
EXTT11=
EXTT12=
EXTT13=
EXTT14=
EXTT15=
EXTT16=
PLAYORDER=
